:version 1.10
:name ASF
:units
  mass 1
  length 1
  angle deg
:documentation
  ASF file generated by Kaydara
:root
  axis xyz
  order  tx ty tz rx ry rz
  position 0 0 0
  orientation 0 0 0
:bonedata
  begin
    id 1
    name abdomenDummy
    direction 1 -1.27917e-005 -1.26829e-007
    length 1.79048
    axis 0 0 0 xyz
  end
  begin
    id 2
    name abdomen
    direction 0.987238 0.159249 -9.68575e-008
    length 8.61378
    axis 2.73208e-005 5.54953e-006 9.16328 xyz
    dof rx ry rz
  end
  begin
    id 3
    name chest
    direction 0 0 0
    length 0
    axis 2.65071e-005 8.63688e-006 2.59796 xyz
    dof rx ry rz
  end
  begin
    id 4
    name neckDummyDummy
    direction 0.998972 0.0453274 -1.50742e-007
    length 9.56202
    axis 2.65071e-005 8.63688e-006 2.59796 xyz
  end
  begin
    id 5
    name neckDummy
    direction 0.99977 0.0214525 -1.61748e-007
    length 1.93574
    axis 2.62932e-005 9.26758e-006 1.22924 xyz
    dof rx ry rz
  end
  begin
    id 6
    name neck
    direction 0.99928 -0.0379406 -1.88707e-007
    length 3.70367
    axis 2.56966e-005 1.08122e-005 -2.17436 xyz
    dof rx ry rz
  end
  begin
    id 7
    name head
    direction 0.992648 -0.121037 -2.25408e-007
    length 6.35158
    axis 2.47068e-005 1.29149e-005 -6.95196 xyz
    dof rx ry rz
  end
  begin
    id 8
    name figureHair
    direction -0.86681 -0.498639 -7.83376e-008
    length 8.29884
    axis -2.7515e-005 4.48842e-006 -150.09 xyz
    dof rx ry rz
  end
  begin
    id 9
    name lCollarDummy
    direction 0.994611 0.0451299 -0.0933417
    length 9.60395
    axis 2.65071e-005 8.63688e-006 2.59796 xyz
  end
  begin
    id 10
    name lCollar
    direction 0.0384146 0.00127577 -0.999261
    length 6.95318
    axis 90.4899 87.7973 1.90202 xyz
    dof rx ry rz
  end
  begin
    id 11
    name lShldr
    direction -0.030648 0.0920515 -0.995282
    length 9.61158
    axis -161.793 84.4324 108.415 xyz
    dof rx ry rz
  end
  begin
    id 12
    name lForeArm
    direction 0.000163956 -0.0977586 -0.99521
    length 8.6068
    axis 0.134773 84.3899 -89.8525 xyz
    dof rx ry rz
  end
  begin
    id 13
    name lHand
    direction -0.0190533 -0.1444 -0.989336
    length 7.61479
    axis -7.3729 81.6249 -97.517 xyz
    dof rx ry rz
  end
  begin
    id 14
    name rCollarDummy
    direction 0.994871 0.0442627 0.0909555
    length 9.60761
    axis 2.65071e-005 8.63688e-006 2.59796 xyz
  end
  begin
    id 15
    name rCollar
    direction 0.0334251 -4.74072e-007 0.999441
    length 6.97058
    axis -178.152 -88.0845 -0.000674207 xyz
    dof rx ry rz
  end
  begin
    id 16
    name rShldr
    direction -0.026922 0.0719509 0.997045
    length 9.60913
    axis 71.2822 -85.594 110.514 xyz
    dof rx ry rz
  end
  begin
    id 17
    name rForeArm
    direction 0.00134679 -0.118986 0.992895
    length 8.57176
    axis -88.7923 -83.1659 -89.3516 xyz
    dof rx ry rz
  end
  begin
    id 18
    name rHand
    direction -0.0185183 -0.0768601 0.99687
    length 7.69687
    axis -74.5596 -85.4655 -103.546 xyz
    dof rx ry rz
  end
  begin
    id 19
    name lThighDummy
    direction -0.236086 -0.0385456 -0.970967
    length 4.99155
    axis 0 0 0 xyz
  end
  begin
    id 20
    name lThigh
    direction -0.993968 0.0148998 -0.108653
    length 13.572
    axis -91.4001 6.23768 179.141 xyz
    dof rx ry rz
  end
  begin
    id 21
    name lShin
    direction -0.992341 0.0904576 -0.0841193
    length 18.5862
    axis -91.4558 4.82538 174.792 xyz
    dof rx ry rz
  end
  begin
    id 22
    name lFoot
    direction 0.0209381 -0.999771 -0.00453005
    length 8.44474
    axis 4.86759 0.259522 -88.8001 xyz
    dof rx ry rz
  end
  begin
    id 23
    name rThighDummy
    direction -0.236086 -0.0385456 0.970967
    length 4.99155
    axis 0 0 0 xyz
  end
  begin
    id 24
    name rThigh
    direction -0.993968 0.0148995 0.108653
    length 13.5721
    axis -89.7059 -6.2377 179.141 xyz
    dof rx ry rz
  end
  begin
    id 25
    name rShin
    direction -0.9925 0.0899962 0.0827255
    length 18.6716
    axis -89.2745 -4.74775 174.819 xyz
    dof rx ry rz
  end
  begin
    id 26
    name rFoot
    direction 0.0301721 -0.999545 9.70865e-005
    length 8.45013
    axis -2.50066e-005 -0.00555246 -88.271 xyz
    dof rx ry rz
  end
:hierarchy
  begin
    root abdomenDummy lThighDummy rThighDummy
    abdomenDummy abdomen
    abdomen chest
    chest neckDummyDummy lCollarDummy rCollarDummy
    neckDummyDummy neckDummy
    neckDummy neck
    neck head
    head figureHair
    lCollarDummy lCollar
    lCollar lShldr
    lShldr lForeArm
    lForeArm lHand
    rCollarDummy rCollar
    rCollar rShldr
    rShldr rForeArm
    rForeArm rHand
    lThighDummy lThigh
    lThigh lShin
    lShin lFoot
    rThighDummy rThigh
    rThigh rShin
    rShin rFoot
  end

:SAMPLES-PER-SECOND 25
:FULLY-SPECIFIED
:DEGREES
816
root  3.48188 37.0297 -2.06035 175.416 0.165253 89.2785
abdomen  -1.19968 -9.98235 -0.0423622
chest  1.24759 11.7751 -9.56601
neckDummy  9.09964e-021 0 8.72668e-016
neck  2.02199 11.3173 0.515675
head  -1.23922 -14.0601 -7.4399
figureHair  0 1.51661e-021 -9.5315e-016
lCollar  -5.15695e-016 -6.42944e-016 -7.59357e-014
lShldr  25.3953 0.188459 -69.6217
lForeArm  19.526 -23.6915 -0.472408
lHand  0.254698 0.195082 5.2986
rCollar  1.7976e-016 -5.12864e-014 1.62755e-015
rShldr  -1.17381 75.3376 28.1504
rForeArm  0.915649 1.45136 17.236
rHand  0.530355 -12.2188 -0.0318353
lThigh  -7.12923 0.839291 -0.0125038
lShin  -13.2825 0.38897 -5.14754
lFoot  4.85638 -0.428526 -2.62942
rThigh  9.45526 -4.22296 -0.903752
rShin  3.48045 6.14757 3.21454
rFoot  -4.7085 0.202809 -2.95095
817
root  3.49586 37.0319 -2.01182 175.638 0.215118 89.5637
abdomen  -1.0025 -9.29508 -0.10778
chest  1.22237 10.524 -9.57328
neckDummy  9.09964e-021 0 8.72668e-016
neck  1.29852 5.31583 0.926438
head  -0.143719 -14.8498 -8.52589
figureHair  0 1.51661e-021 -9.5315e-016
lCollar  -5.15695e-016 -6.42944e-016 -7.59357e-014
lShldr  25.4163 0.0109764 -70.0441
lForeArm  19.7708 -23.5365 -0.479199
lHand  0.254698 0.195082 5.2986
rCollar  1.7976e-016 -5.12864e-014 1.62755e-015
rShldr  -0.894743 75.051 28.3945
rForeArm  0.807009 1.55973 16.9539
rHand  0.521451 -12.101 -0.00149047
lThigh  -7.10352 0.515599 -0.0864385
lShin  -13.1411 0.326119 -5.20409
lFoot  4.89742 -0.428749 -2.70864
rThigh  9.42136 -4.39429 -0.974769
rShin  3.72629 5.95561 3.19114
rFoot  -4.51475 0.17207 -3.04966
818
root  3.49442 37.0343 -1.9639 175.859 0.251877 89.7184
abdomen  -0.749783 -8.31931 -0.0458391
chest  1.17085 8.88473 -9.83339
neckDummy  9.09964e-021 0 8.72668e-016
neck  0.349938 -1.11418 1.36624
head  0.928132 -14.6204 -9.91659
figureHair  0 1.51661e-021 -9.5315e-016
lCollar  -5.15695e-016 -6.42944e-016 -7.59357e-014
lShldr  25.3684 -0.288142 -70.7334
lForeArm  20.1898 -23.4435 -0.483288
lHand  0.254698 0.195082 5.2986
rCollar  1.7976e-016 -5.12864e-014 1.62755e-015
rShldr  -0.862364 74.5296 28.4998
rForeArm  0.816679 1.64997 16.7435
rHand  0.498737 -12.1463 0.196079
lThigh  -7.0099 0.326484 -0.205612
lShin  -13.0552 0.251852 -5.19361
lFoot  5.00226 -0.434193 -2.79284
rThigh  9.41418 -4.40786 -1.05513
rShin  3.933 5.73934 3.18188
rFoot  -4.2833 0.140343 -3.13048
819
root  3.48205 37.0358 -1.91324 176.136 0.294022 89.6995
abdomen  -0.411734 -6.7953 -0.0887829
chest  1.0506 6.35252 -10.137
neckDummy  9.09964e-021 0 8.72668e-016
neck  -0.753159 -7.03334 1.69751
head  1.73102 -13.524 -11.4914
figureHair  0 1.51661e-021 -9.5315e-016
lCollar  -5.15695e-016 -6.42944e-016 -7.59357e-014
lShldr  25.8885 -0.561708 -71.8041
lForeArm  20.2194 -23.3902 -0.486176
lHand  0.254698 0.195082 5.2986
rCollar  1.7976e-016 -5.12864e-014 1.62755e-015
rShldr  -0.835594 73.7501 28.0807
rForeArm  0.755271 1.64995 16.7312
rHand  0.495835 -12.324 0.277943
lThigh  -6.82759 0.337545 -0.395339
lShin  -12.9794 0.181949 -5.10961
lFoot  5.1415 -0.44374 -2.84926
rThigh  9.50151 -4.2808 -1.19447
rShin  4.10558 5.70238 3.19207
rFoot  -4.20718 0.134912 -3.116
820
root  3.47214 37.0403 -1.87819 176.473 0.275879 89.6426
abdomen  -0.0350396 -4.79746 -0.178402
chest  0.830759 2.87026 -10.2744
neckDummy  9.09964e-021 0 8.72668e-016
neck  -1.82226 -11.4952 1.77811
head  2.1569 -12.2713 -13.4451
figureHair  0 1.51661e-021 -9.5315e-016
lCollar  -5.15695e-016 -6.42944e-016 -7.59357e-014
lShldr  26.7942 -0.586461 -73.2505
lForeArm  20.1863 -23.3815 -0.485997
lHand  0.254698 0.195082 5.2986
rCollar  1.7976e-016 -5.12864e-014 1.62755e-015
rShldr  -0.791894 72.6899 27.4172
rForeArm  0.796321 1.6438 16.7224
rHand  0.514004 -12.3933 0.156942
lThigh  -6.75094 0.338913 -0.482461
lShin  -12.7272 0.180288 -5.01878
lFoot  5.18086 -0.445798 -2.87888
rThigh  9.56866 -4.08017 -1.2646
rShin  4.36651 5.6221 3.25503
rFoot  -4.28383 0.141658 -3.12022
821
root  3.45448 37.0477 -1.8576 176.794 0.180405 89.6443
abdomen  0.268988 -2.9765 -0.161191
chest  0.559707 -0.63931 -10.2957
neckDummy  9.09964e-021 0 8.72668e-016
neck  -2.77273 -14.5549 1.30321
head  2.21336 -11.1814 -15.5473
figureHair  0 1.51661e-021 -9.5315e-016
lCollar  -5.15695e-016 -6.42944e-016 -7.59357e-014
lShldr  28.1362 -0.482151 -74.5758
lForeArm  20.7168 -23.5513 -0.478581
lHand  0.254698 0.195082 5.2986
rCollar  1.7976e-016 -5.12864e-014 1.62755e-015
rShldr  -0.479903 71.6376 26.9739
rForeArm  1.10774 1.70294 16.5636
rHand  0.52028 -12.5133 0.147046
lThigh  -6.83852 0.306011 -0.418657
lShin  -12.3267 0.206622 -4.98411
lFoot  5.16651 -0.444303 -2.88457
rThigh  9.53714 -3.77549 -1.21066
rShin  4.69519 5.28253 3.34727
rFoot  -4.33338 0.135365 -3.20998
822
root  3.42504 37.0511 -1.8277 176.962 0.123749 89.6343
abdomen  0.46198 -1.68552 -0.0334865
chest  0.312253 -3.45858 -10.3813
neckDummy  9.09964e-021 0 8.72668e-016
neck  -3.53805 -16.7049 0.23403
head  2.04381 -10.518 -17.2917
figureHair  0 1.51661e-021 -9.5315e-016
lCollar  -5.15695e-016 -6.42944e-016 -7.59357e-014
lShldr  29.9455 -0.535852 -75.422
lForeArm  21.5942 -23.9309 -0.462023
lHand  0.254698 0.195082 5.2986
rCollar  1.7976e-016 -5.12864e-014 1.62755e-015
rShldr  0.668803 70.8761 26.8761
rForeArm  1.29516 1.75639 16.4037
rHand  0.528597 -12.853 0.192969
lThigh  -6.93255 0.350991 -0.375251
lShin  -12.0567 0.197816 -5.02262
lFoot  5.22494 -0.450935 -2.8505
rThigh  9.51398 -3.51291 -1.19028
rShin  4.86787 4.99934 3.38767
rFoot  -4.27764 0.123496 -3.26504
823
root  3.40102 37.0486 -1.77735 176.94 0.149261 89.6262
abdomen  0.57723 -0.76552 0.180536
chest  0.111437 -5.64005 -10.6616
neckDummy  9.09964e-021 0 8.72668e-016
neck  -4.1929 -18.2929 -0.997389
head  1.75505 -10.4465 -18.5517
figureHair  0 1.51661e-021 -9.5315e-016
lCollar  -5.15695e-016 -6.42944e-016 -7.59357e-014
lShldr  31.2224 -0.750277 -76.0484
lForeArm  22.2913 -24.3676 -0.442834
lHand  0.254698 0.195082 5.2986
rCollar  1.7976e-016 -5.12864e-014 1.62755e-015
rShldr  2.0903 70.2594 27.0237
rForeArm  1.16918 1.70022 16.487
rHand  0.538136 -13.0078 0.169467
lThigh  -6.94029 0.437275 -0.449235
lShin  -12.0668 0.154817 -5.10464
lFoot  5.34188 -0.464086 -2.78638
rThigh  9.583 -3.49271 -1.30435
rShin  4.76893 5.04144 3.36121
rFoot  -4.18135 0.118478 -3.23244
